M48
;Layer_Color=9474304
;FILE_FORMAT=2:5
INCH,LZ
;TYPE=PLATED
T1F00S00C0.00787
T2F00S00C0.01500
T3F00S00C0.02000
T4F00S00C0.07100
%
T01
X0247547Y0222047
X0253453
Y0227953
X0247547
T02
X0248Y01915
X026Y02085
X0271642Y0205
X02775Y0219
X02505Y0243
X0243
X0233212Y0255212
X02375Y02705
X02395Y0287
T03
X034Y01865
Y01935
X0339949Y0201
X0339963Y0207966
X0339855Y0215024
X0339963Y0222466
X0339949Y02295
X034Y0236
Y02435
Y02505
Y02575
Y02655
X02175Y02405
Y02345
X0217496Y0228824
Y0223205
X02175Y02175
T04
X019775Y026075
Y027725
X021425
Y026075
X03035Y0254
X032
Y02375
X03035
M30
