G04*
G04 #@! TF.GenerationSoftware,Altium Limited,Altium Designer,20.1.14 (287)*
G04*
G04 Layer_Color=16711935*
%FSLAX25Y25*%
%MOIN*%
G70*
G04*
G04 #@! TF.SameCoordinates,EDB217C5-CD14-42A3-A981-AABFE87B0B62*
G04*
G04*
G04 #@! TF.FilePolarity,Negative*
G04*
G01*
G75*
%ADD47C,0.11800*%
%ADD48C,0.03300*%
%ADD49C,0.03800*%
%ADD50C,0.02375*%
D47*
X303500Y254000D02*
D03*
X320000D02*
D03*
X303500Y237500D02*
D03*
X320000D02*
D03*
X197750Y260750D02*
D03*
X214250D02*
D03*
X197750Y277250D02*
D03*
X214250D02*
D03*
D48*
X260000Y208500D02*
D03*
X248000Y191500D02*
D03*
X250500Y243000D02*
D03*
X243000D02*
D03*
X239500Y287000D02*
D03*
X233212Y255212D02*
D03*
X271642Y205000D02*
D03*
X277500Y219000D02*
D03*
X237500Y270500D02*
D03*
D49*
X340000Y257500D02*
D03*
Y250500D02*
D03*
Y186500D02*
D03*
Y193500D02*
D03*
X339963Y207966D02*
D03*
Y222466D02*
D03*
X340000Y236000D02*
D03*
Y265500D02*
D03*
X339855Y215024D02*
D03*
X340000Y243500D02*
D03*
X339949Y229500D02*
D03*
Y201000D02*
D03*
X217500Y217500D02*
D03*
X217496Y223205D02*
D03*
Y228824D02*
D03*
X217500Y234500D02*
D03*
Y240500D02*
D03*
D50*
X253453Y222047D02*
D03*
Y227953D02*
D03*
X247547Y222047D02*
D03*
Y227953D02*
D03*
M02*
