G04*
G04 #@! TF.GenerationSoftware,Altium Limited,Altium Designer,20.1.14 (287)*
G04*
G04 Layer_Color=16711935*
%FSLAX25Y25*%
%MOIN*%
G70*
G04*
G04 #@! TF.SameCoordinates,EDB217C5-CD14-42A3-A981-AABFE87B0B62*
G04*
G04*
G04 #@! TF.FilePolarity,Positive*
G04*
G01*
G75*
%ADD11C,0.00787*%
G36*
X271481Y214603D02*
X271514Y214599D01*
X271553Y214595D01*
X271594Y214592D01*
X271641Y214581D01*
X271739Y214559D01*
X271848Y214526D01*
X271903Y214504D01*
X271954Y214479D01*
X272005Y214446D01*
X272056Y214413D01*
X272059Y214410D01*
X272067Y214406D01*
X272081Y214395D01*
X272099Y214377D01*
X272118Y214359D01*
X272143Y214333D01*
X272169Y214304D01*
X272198Y214275D01*
X272227Y214239D01*
X272256Y214195D01*
X272289Y214151D01*
X272318Y214104D01*
X272343Y214049D01*
X272373Y213995D01*
X272394Y213936D01*
X272416Y213871D01*
X272089Y213794D01*
Y213798D01*
X272085Y213805D01*
X272078Y213820D01*
X272070Y213838D01*
X272063Y213860D01*
X272052Y213889D01*
X272023Y213947D01*
X271987Y214013D01*
X271943Y214078D01*
X271888Y214140D01*
X271830Y214195D01*
X271823Y214202D01*
X271801Y214217D01*
X271765Y214235D01*
X271717Y214260D01*
X271656Y214282D01*
X271586Y214304D01*
X271503Y214319D01*
X271412Y214322D01*
X271382D01*
X271364Y214319D01*
X271339D01*
X271310Y214315D01*
X271240Y214304D01*
X271164Y214289D01*
X271084Y214264D01*
X271000Y214228D01*
X270924Y214180D01*
X270920D01*
X270917Y214173D01*
X270891Y214155D01*
X270858Y214126D01*
X270818Y214082D01*
X270771Y214027D01*
X270727Y213966D01*
X270687Y213889D01*
X270651Y213805D01*
Y213802D01*
X270647Y213794D01*
X270644Y213784D01*
X270640Y213765D01*
X270633Y213743D01*
X270625Y213718D01*
X270614Y213656D01*
X270600Y213583D01*
X270585Y213503D01*
X270578Y213416D01*
X270574Y213321D01*
Y213318D01*
Y213307D01*
Y213288D01*
Y213267D01*
X270578Y213241D01*
Y213208D01*
X270582Y213172D01*
X270585Y213132D01*
X270596Y213045D01*
X270614Y212950D01*
X270636Y212855D01*
X270665Y212761D01*
Y212757D01*
X270669Y212750D01*
X270676Y212739D01*
X270684Y212721D01*
X270705Y212677D01*
X270738Y212626D01*
X270778Y212568D01*
X270829Y212506D01*
X270887Y212451D01*
X270957Y212400D01*
X270960D01*
X270968Y212397D01*
X270978Y212389D01*
X270993Y212382D01*
X271011Y212375D01*
X271033Y212364D01*
X271084Y212342D01*
X271149Y212320D01*
X271222Y212302D01*
X271302Y212287D01*
X271386Y212284D01*
X271412D01*
X271433Y212287D01*
X271459D01*
X271484Y212291D01*
X271550Y212306D01*
X271626Y212324D01*
X271703Y212353D01*
X271783Y212393D01*
X271823Y212415D01*
X271859Y212444D01*
X271863Y212448D01*
X271867Y212451D01*
X271878Y212462D01*
X271892Y212473D01*
X271907Y212491D01*
X271925Y212513D01*
X271947Y212535D01*
X271965Y212564D01*
X271987Y212597D01*
X272012Y212633D01*
X272034Y212670D01*
X272056Y212713D01*
X272074Y212761D01*
X272092Y212812D01*
X272111Y212866D01*
X272125Y212925D01*
X272460Y212841D01*
Y212837D01*
X272456Y212823D01*
X272449Y212801D01*
X272438Y212772D01*
X272427Y212739D01*
X272413Y212699D01*
X272394Y212655D01*
X272373Y212608D01*
X272322Y212506D01*
X272256Y212404D01*
X272216Y212353D01*
X272176Y212302D01*
X272132Y212258D01*
X272081Y212215D01*
X272078Y212211D01*
X272070Y212204D01*
X272052Y212196D01*
X272034Y212182D01*
X272005Y212164D01*
X271976Y212146D01*
X271936Y212127D01*
X271896Y212109D01*
X271848Y212087D01*
X271797Y212069D01*
X271743Y212051D01*
X271685Y212033D01*
X271623Y212018D01*
X271557Y212011D01*
X271488Y212004D01*
X271415Y212000D01*
X271375D01*
X271346Y212004D01*
X271313D01*
X271273Y212007D01*
X271230Y212015D01*
X271179Y212022D01*
X271073Y212040D01*
X270964Y212069D01*
X270855Y212109D01*
X270804Y212135D01*
X270753Y212164D01*
X270749Y212167D01*
X270742Y212171D01*
X270727Y212182D01*
X270713Y212196D01*
X270691Y212211D01*
X270665Y212233D01*
X270636Y212258D01*
X270607Y212287D01*
X270578Y212320D01*
X270545Y212353D01*
X270480Y212437D01*
X270418Y212535D01*
X270363Y212644D01*
Y212648D01*
X270356Y212659D01*
X270352Y212677D01*
X270341Y212699D01*
X270334Y212728D01*
X270323Y212764D01*
X270309Y212804D01*
X270298Y212848D01*
X270287Y212895D01*
X270272Y212950D01*
X270254Y213063D01*
X270239Y213190D01*
X270232Y213321D01*
Y213325D01*
Y213339D01*
Y213361D01*
X270236Y213387D01*
Y213423D01*
X270239Y213460D01*
X270243Y213507D01*
X270250Y213554D01*
X270269Y213660D01*
X270294Y213776D01*
X270331Y213893D01*
X270381Y214006D01*
X270385Y214009D01*
X270389Y214020D01*
X270396Y214035D01*
X270411Y214053D01*
X270425Y214078D01*
X270443Y214107D01*
X270491Y214173D01*
X270553Y214246D01*
X270625Y214319D01*
X270709Y214391D01*
X270807Y214453D01*
X270811Y214457D01*
X270822Y214461D01*
X270836Y214468D01*
X270855Y214479D01*
X270884Y214490D01*
X270913Y214501D01*
X270949Y214515D01*
X270989Y214530D01*
X271033Y214544D01*
X271080Y214559D01*
X271182Y214581D01*
X271299Y214599D01*
X271419Y214606D01*
X271455D01*
X271481Y214603D01*
D02*
G37*
G36*
X275266Y213907D02*
X275321Y213904D01*
X275379Y213896D01*
X275441Y213882D01*
X275507Y213867D01*
X275569Y213845D01*
X275572D01*
X275576Y213842D01*
X275594Y213835D01*
X275623Y213820D01*
X275659Y213802D01*
X275699Y213776D01*
X275740Y213747D01*
X275776Y213714D01*
X275809Y213678D01*
X275812Y213674D01*
X275820Y213660D01*
X275834Y213634D01*
X275852Y213605D01*
X275871Y213562D01*
X275889Y213514D01*
X275903Y213460D01*
X275918Y213398D01*
X275616Y213358D01*
Y213365D01*
X275612Y213380D01*
X275605Y213405D01*
X275594Y213438D01*
X275576Y213471D01*
X275554Y213507D01*
X275528Y213543D01*
X275492Y213576D01*
X275488Y213580D01*
X275474Y213587D01*
X275452Y213601D01*
X275419Y213616D01*
X275383Y213631D01*
X275336Y213645D01*
X275277Y213652D01*
X275215Y213656D01*
X275179D01*
X275143Y213652D01*
X275095Y213649D01*
X275048Y213638D01*
X274997Y213627D01*
X274950Y213609D01*
X274910Y213583D01*
X274906Y213580D01*
X274895Y213572D01*
X274881Y213558D01*
X274866Y213536D01*
X274848Y213514D01*
X274833Y213485D01*
X274822Y213452D01*
X274819Y213420D01*
Y213416D01*
Y213409D01*
X274822Y213398D01*
Y213383D01*
X274833Y213347D01*
X274855Y213310D01*
X274859Y213307D01*
X274862Y213303D01*
X274870Y213292D01*
X274884Y213281D01*
X274899Y213270D01*
X274921Y213256D01*
X274946Y213245D01*
X274975Y213230D01*
X274979D01*
X274986Y213227D01*
X275001Y213223D01*
X275026Y213212D01*
X275062Y213201D01*
X275110Y213190D01*
X275139Y213179D01*
X275172Y213172D01*
X275208Y213161D01*
X275248Y213150D01*
X275252D01*
X275263Y213146D01*
X275281Y213143D01*
X275303Y213136D01*
X275328Y213128D01*
X275361Y213121D01*
X275430Y213099D01*
X275507Y213077D01*
X275583Y213052D01*
X275652Y213026D01*
X275681Y213016D01*
X275707Y213005D01*
X275714Y213001D01*
X275729Y212994D01*
X275750Y212983D01*
X275783Y212965D01*
X275816Y212943D01*
X275849Y212914D01*
X275882Y212881D01*
X275911Y212844D01*
X275914Y212841D01*
X275922Y212826D01*
X275936Y212804D01*
X275951Y212772D01*
X275962Y212732D01*
X275976Y212688D01*
X275983Y212637D01*
X275987Y212579D01*
Y212571D01*
Y212553D01*
X275983Y212524D01*
X275976Y212484D01*
X275965Y212440D01*
X275947Y212393D01*
X275925Y212338D01*
X275896Y212287D01*
X275892Y212280D01*
X275878Y212266D01*
X275860Y212240D01*
X275831Y212211D01*
X275791Y212178D01*
X275747Y212142D01*
X275696Y212109D01*
X275634Y212076D01*
X275630D01*
X275627Y212073D01*
X275605Y212066D01*
X275569Y212055D01*
X275521Y212040D01*
X275463Y212025D01*
X275397Y212015D01*
X275328Y212007D01*
X275248Y212004D01*
X275215D01*
X275190Y212007D01*
X275161D01*
X275124Y212011D01*
X275088Y212015D01*
X275048Y212022D01*
X274961Y212040D01*
X274870Y212066D01*
X274782Y212102D01*
X274742Y212124D01*
X274706Y212149D01*
X274702Y212153D01*
X274698Y212157D01*
X274677Y212178D01*
X274644Y212211D01*
X274607Y212262D01*
X274568Y212324D01*
X274527Y212397D01*
X274495Y212488D01*
X274469Y212590D01*
X274775Y212637D01*
Y212633D01*
Y212630D01*
X274782Y212608D01*
X274790Y212571D01*
X274804Y212531D01*
X274822Y212488D01*
X274844Y212440D01*
X274877Y212393D01*
X274917Y212353D01*
X274924Y212349D01*
X274939Y212338D01*
X274968Y212324D01*
X275004Y212306D01*
X275052Y212287D01*
X275106Y212273D01*
X275172Y212262D01*
X275248Y212258D01*
X275285D01*
X275321Y212262D01*
X275368Y212269D01*
X275419Y212280D01*
X275474Y212295D01*
X275521Y212313D01*
X275565Y212342D01*
X275569Y212346D01*
X275583Y212357D01*
X275598Y212375D01*
X275619Y212400D01*
X275638Y212429D01*
X275656Y212466D01*
X275667Y212502D01*
X275670Y212546D01*
Y212550D01*
Y212564D01*
X275667Y212582D01*
X275659Y212608D01*
X275648Y212633D01*
X275630Y212659D01*
X275608Y212688D01*
X275576Y212710D01*
X275572Y212713D01*
X275561Y212717D01*
X275543Y212728D01*
X275514Y212739D01*
X275470Y212753D01*
X275445Y212764D01*
X275416Y212772D01*
X275383Y212783D01*
X275346Y212793D01*
X275306Y212804D01*
X275259Y212815D01*
X275255D01*
X275244Y212819D01*
X275226Y212823D01*
X275204Y212830D01*
X275175Y212837D01*
X275143Y212848D01*
X275073Y212866D01*
X274993Y212892D01*
X274917Y212914D01*
X274844Y212939D01*
X274811Y212954D01*
X274786Y212965D01*
X274779Y212968D01*
X274764Y212976D01*
X274742Y212990D01*
X274713Y213008D01*
X274680Y213034D01*
X274648Y213063D01*
X274615Y213096D01*
X274586Y213136D01*
X274582Y213139D01*
X274575Y213154D01*
X274564Y213179D01*
X274553Y213208D01*
X274542Y213245D01*
X274531Y213288D01*
X274524Y213332D01*
X274520Y213383D01*
Y213390D01*
Y213405D01*
X274524Y213427D01*
X274527Y213460D01*
X274535Y213492D01*
X274542Y213532D01*
X274557Y213569D01*
X274575Y213609D01*
X274578Y213613D01*
X274586Y213627D01*
X274597Y213645D01*
X274615Y213671D01*
X274637Y213696D01*
X274662Y213729D01*
X274691Y213758D01*
X274728Y213784D01*
X274731Y213787D01*
X274742Y213791D01*
X274757Y213802D01*
X274779Y213813D01*
X274808Y213827D01*
X274840Y213842D01*
X274881Y213856D01*
X274924Y213871D01*
X274932Y213875D01*
X274946Y213878D01*
X274972Y213885D01*
X275004Y213893D01*
X275044Y213900D01*
X275088Y213904D01*
X275139Y213911D01*
X275226D01*
X275266Y213907D01*
D02*
G37*
G36*
X273505D02*
X273559Y213904D01*
X273617Y213896D01*
X273679Y213882D01*
X273745Y213867D01*
X273807Y213845D01*
X273810D01*
X273814Y213842D01*
X273832Y213835D01*
X273861Y213820D01*
X273898Y213802D01*
X273938Y213776D01*
X273978Y213747D01*
X274014Y213714D01*
X274047Y213678D01*
X274051Y213674D01*
X274058Y213660D01*
X274072Y213634D01*
X274091Y213605D01*
X274109Y213562D01*
X274127Y213514D01*
X274142Y213460D01*
X274156Y213398D01*
X273854Y213358D01*
Y213365D01*
X273850Y213380D01*
X273843Y213405D01*
X273832Y213438D01*
X273814Y213471D01*
X273792Y213507D01*
X273767Y213543D01*
X273730Y213576D01*
X273727Y213580D01*
X273712Y213587D01*
X273690Y213601D01*
X273657Y213616D01*
X273621Y213631D01*
X273574Y213645D01*
X273516Y213652D01*
X273454Y213656D01*
X273417D01*
X273381Y213652D01*
X273334Y213649D01*
X273286Y213638D01*
X273235Y213627D01*
X273188Y213609D01*
X273148Y213583D01*
X273144Y213580D01*
X273133Y213572D01*
X273119Y213558D01*
X273104Y213536D01*
X273086Y213514D01*
X273071Y213485D01*
X273060Y213452D01*
X273057Y213420D01*
Y213416D01*
Y213409D01*
X273060Y213398D01*
Y213383D01*
X273071Y213347D01*
X273093Y213310D01*
X273097Y213307D01*
X273101Y213303D01*
X273108Y213292D01*
X273122Y213281D01*
X273137Y213270D01*
X273159Y213256D01*
X273184Y213245D01*
X273213Y213230D01*
X273217D01*
X273224Y213227D01*
X273239Y213223D01*
X273264Y213212D01*
X273301Y213201D01*
X273348Y213190D01*
X273377Y213179D01*
X273410Y213172D01*
X273446Y213161D01*
X273486Y213150D01*
X273490D01*
X273501Y213146D01*
X273519Y213143D01*
X273541Y213136D01*
X273567Y213128D01*
X273599Y213121D01*
X273668Y213099D01*
X273745Y213077D01*
X273821Y213052D01*
X273890Y213026D01*
X273920Y213016D01*
X273945Y213005D01*
X273952Y213001D01*
X273967Y212994D01*
X273989Y212983D01*
X274022Y212965D01*
X274054Y212943D01*
X274087Y212914D01*
X274120Y212881D01*
X274149Y212844D01*
X274152Y212841D01*
X274160Y212826D01*
X274174Y212804D01*
X274189Y212772D01*
X274200Y212732D01*
X274214Y212688D01*
X274222Y212637D01*
X274225Y212579D01*
Y212571D01*
Y212553D01*
X274222Y212524D01*
X274214Y212484D01*
X274203Y212440D01*
X274185Y212393D01*
X274163Y212338D01*
X274134Y212287D01*
X274131Y212280D01*
X274116Y212266D01*
X274098Y212240D01*
X274069Y212211D01*
X274029Y212178D01*
X273985Y212142D01*
X273934Y212109D01*
X273872Y212076D01*
X273869D01*
X273865Y212073D01*
X273843Y212066D01*
X273807Y212055D01*
X273759Y212040D01*
X273701Y212025D01*
X273636Y212015D01*
X273567Y212007D01*
X273486Y212004D01*
X273454D01*
X273428Y212007D01*
X273399D01*
X273363Y212011D01*
X273326Y212015D01*
X273286Y212022D01*
X273199Y212040D01*
X273108Y212066D01*
X273021Y212102D01*
X272980Y212124D01*
X272944Y212149D01*
X272940Y212153D01*
X272937Y212157D01*
X272915Y212178D01*
X272882Y212211D01*
X272846Y212262D01*
X272806Y212324D01*
X272766Y212397D01*
X272733Y212488D01*
X272707Y212590D01*
X273013Y212637D01*
Y212633D01*
Y212630D01*
X273021Y212608D01*
X273028Y212571D01*
X273042Y212531D01*
X273060Y212488D01*
X273082Y212440D01*
X273115Y212393D01*
X273155Y212353D01*
X273162Y212349D01*
X273177Y212338D01*
X273206Y212324D01*
X273242Y212306D01*
X273290Y212287D01*
X273344Y212273D01*
X273410Y212262D01*
X273486Y212258D01*
X273523D01*
X273559Y212262D01*
X273606Y212269D01*
X273657Y212280D01*
X273712Y212295D01*
X273759Y212313D01*
X273803Y212342D01*
X273807Y212346D01*
X273821Y212357D01*
X273836Y212375D01*
X273858Y212400D01*
X273876Y212429D01*
X273894Y212466D01*
X273905Y212502D01*
X273909Y212546D01*
Y212550D01*
Y212564D01*
X273905Y212582D01*
X273898Y212608D01*
X273887Y212633D01*
X273869Y212659D01*
X273847Y212688D01*
X273814Y212710D01*
X273810Y212713D01*
X273799Y212717D01*
X273781Y212728D01*
X273752Y212739D01*
X273708Y212753D01*
X273683Y212764D01*
X273654Y212772D01*
X273621Y212783D01*
X273585Y212793D01*
X273545Y212804D01*
X273497Y212815D01*
X273494D01*
X273483Y212819D01*
X273465Y212823D01*
X273443Y212830D01*
X273414Y212837D01*
X273381Y212848D01*
X273312Y212866D01*
X273232Y212892D01*
X273155Y212914D01*
X273082Y212939D01*
X273050Y212954D01*
X273024Y212965D01*
X273017Y212968D01*
X273002Y212976D01*
X272980Y212990D01*
X272951Y213008D01*
X272919Y213034D01*
X272886Y213063D01*
X272853Y213096D01*
X272824Y213136D01*
X272820Y213139D01*
X272813Y213154D01*
X272802Y213179D01*
X272791Y213208D01*
X272780Y213245D01*
X272769Y213288D01*
X272762Y213332D01*
X272758Y213383D01*
Y213390D01*
Y213405D01*
X272762Y213427D01*
X272766Y213460D01*
X272773Y213492D01*
X272780Y213532D01*
X272795Y213569D01*
X272813Y213609D01*
X272817Y213613D01*
X272824Y213627D01*
X272835Y213645D01*
X272853Y213671D01*
X272875Y213696D01*
X272900Y213729D01*
X272930Y213758D01*
X272966Y213784D01*
X272970Y213787D01*
X272980Y213791D01*
X272995Y213802D01*
X273017Y213813D01*
X273046Y213827D01*
X273079Y213842D01*
X273119Y213856D01*
X273162Y213871D01*
X273170Y213875D01*
X273184Y213878D01*
X273210Y213885D01*
X273242Y213893D01*
X273283Y213900D01*
X273326Y213904D01*
X273377Y213911D01*
X273465D01*
X273505Y213907D01*
D02*
G37*
D11*
X263527Y215851D02*
X276937D01*
Y208149D02*
Y215851D01*
X263527Y208149D02*
X276937D01*
X263527D02*
Y215851D01*
M02*
