G04*
G04 #@! TF.GenerationSoftware,Altium Limited,Altium Designer,20.1.14 (287)*
G04*
G04 Layer_Color=16711935*
%FSLAX25Y25*%
%MOIN*%
G70*
G04*
G04 #@! TF.SameCoordinates,EDB217C5-CD14-42A3-A981-AABFE87B0B62*
G04*
G04*
G04 #@! TF.FilePolarity,Positive*
G04*
G01*
G75*
%ADD60C,0.00394*%
D60*
X245972Y219685D02*
G03*
X245972Y219685I-1969J0D01*
G01*
X265087Y282177D02*
X350913D01*
X265087Y366823D02*
X350913D01*
X265087Y282177D02*
Y366823D01*
X350913Y282177D02*
Y366823D01*
X226866Y212842D02*
X235134D01*
X226866Y218158D02*
X235134D01*
Y212842D02*
Y218158D01*
X226866Y212842D02*
Y218158D01*
X259106Y175146D02*
Y180854D01*
X267768Y175146D02*
Y180854D01*
X259106D02*
X267768D01*
X259106Y175146D02*
X267768D01*
X254201Y247228D02*
Y250772D01*
X247508Y247228D02*
Y250772D01*
Y247228D02*
X254201D01*
X247508Y250772D02*
X254201D01*
X265854Y241528D02*
Y250189D01*
X260146Y241528D02*
Y250189D01*
X265854D01*
X260146Y241528D02*
X265854D01*
X297738Y214669D02*
X330169D01*
Y173331D02*
Y214669D01*
X288831Y182238D02*
Y205762D01*
X297738Y173331D02*
X330169D01*
X288831Y205762D02*
X297738Y214669D01*
X288831Y182238D02*
X297738Y173331D01*
X259169Y202354D02*
X267831D01*
X259169Y196646D02*
X267831D01*
X259169D02*
Y202354D01*
X267831Y196646D02*
Y202354D01*
X259169Y187146D02*
X267831D01*
X259169Y192854D02*
X267831D01*
Y187146D02*
Y192854D01*
X259169Y187146D02*
Y192854D01*
X236118Y193646D02*
X244779D01*
X236118Y199354D02*
X244779D01*
Y193646D02*
Y199354D01*
X236118Y193646D02*
Y199354D01*
X197110Y238315D02*
X210890D01*
X197110Y227685D02*
X210890D01*
X197110D02*
Y238315D01*
X210890Y227685D02*
Y238315D01*
X197110Y224815D02*
X210890D01*
X197110Y214185D02*
X210890D01*
X197110D02*
Y224815D01*
X210890Y214185D02*
Y224815D01*
X210185Y195610D02*
X220815D01*
X210185D02*
Y209390D01*
X220815Y195610D02*
Y209390D01*
X210185D02*
X220815D01*
X226169Y203146D02*
X234831D01*
X226169Y208854D02*
X234831D01*
Y203146D02*
Y208854D01*
X226169Y203146D02*
Y208854D01*
X260539Y216142D02*
Y233858D01*
X240461D02*
X260539D01*
X240461Y216142D02*
X260539D01*
X240461D02*
Y233858D01*
M02*
